<?xml version="1.0" encoding="UTF-8"?>
<svg id="Layer_2" data-name="Layer 2" xmlns="http://www.w3.org/2000/svg" viewBox="0 0 149.43 149.43">
  <defs>
    <style>
      .cls-1 {
        fill: #fff;
      }

      .cls-2 {
        fill: #3d4785;
      }
    </style>
  </defs>
  <g id="Layer_1-2" data-name="Layer 1">
    <g>
      <circle class="cls-2" cx="74.72" cy="74.72" r="74.72"/>
      <g>
        <path class="cls-1" d="M101.08,111.81c-7.82,7.62-16.78.59-25.3.16-8.92-.45-19.22,7.61-27.24.16-6.42-5.97-4.95-15.29-.23-21.79,2.18-3,5.12-5.17,7.51-7.92,6.06-6.97,9.61-19.17,21.28-17.19,7.4,1.26,10.87,10.01,15.01,15.28,3.28,4.18,7.84,7.25,10.46,11.96,3.55,6.36,4.02,13.98-1.49,19.35Z"/>
        <path class="cls-1" d="M90.33,34.1c7.54.17,9.75,9.24,9.14,15.38-.72,7.19-7.45,17.35-15.76,13.79-11.15-4.78-6.27-29.46,6.62-29.17Z"/>
        <path class="cls-1" d="M57.49,34.3c15.52-2.61,19.88,27.59,6.26,29.56-14.63,2.11-18.83-27.45-6.26-29.56Z"/>
        <path class="cls-1" d="M109.91,57.59c15.8-2.48,12.57,24.85-1.56,26.4-14.9,1.63-11.73-24.31,1.56-26.4Z"/>
        <path class="cls-1" d="M35.95,57.6c15.16-2.26,21.2,25.21,7.2,26.42s-19.76-24.55-7.2-26.42Z"/>
      </g>
    </g>
  </g>
</svg>